<svg version="1.2" xmlns="http://www.w3.org/2000/svg" viewBox="0 0 488 253" width="488" height="253">
	<style>
		.s0 { fill: #000000;stroke: #7c5334;stroke-miterlimit:100;stroke-width: 0 } 
	</style>
	<path id="Shape-02" class="s0" d="m4.5 2h272c1.38 0 2.5 1.12 2.5 2.5 0 1.38-1.12 2.5-2.5 2.5h-272c-1.38 0-2.5-1.12-2.5-2.5 0-1.38 1.12-2.5 2.5-2.5zm0 89h432c1.38 0 2.5 1.12 2.5 2.5 0 1.38-1.12 2.5-2.5 2.5h-432c-1.38 0-2.5-1.12-2.5-2.5 0-1.38 1.12-2.5 2.5-2.5zm0 81h480c1.38 0 2.5 1.12 2.5 2.5 0 1.38-1.12 2.5-2.5 2.5h-480c-1.38 0-2.5-1.12-2.5-2.5 0-1.38 1.12-2.5 2.5-2.5zm0 75h390c1.38 0 2.5 1.12 2.5 2.5 0 1.38-1.12 2.5-2.5 2.5h-390c-1.38 0-2.5-1.12-2.5-2.5 0-1.38 1.12-2.5 2.5-2.5z"/>
</svg>